# xmcd
#
# Track frame offsets:
#	150
#	12885
#	23107
#	33617
#	45790
#	58672
#	70032
#	80402
#	91745
#	105615
#
# Disc length: 1538 seconds
#
# Revision: 0
# Processed by: cddbd v1.5.1PL0 Copyright (c) Steve Scherf et al.
# Submitted via: dBpowerAMP V4.0
#
DISCID=6c06000a
DTITLE=Eddy Arnold - Country Music Hall Of Fame 1966
DYEAR=2000
DGENRE=Country
TTITLE0=Just A Little Lovin' ( Will Go A Long Way )
TTITLE1=I Wanna Play House With You
TTITLE2=There's Been A Change In Me
TTITLE3=I'm Throwing Rice ( At The Girl I Love )
TTITLE4=Then You Can Tell Me Goodbye
TTITLE5=It's A Sin
TTITLE6=The Last Word In Lonesome Is Me
TTITLE7=Just Call Me Lonesome
TTITLE8=Molly Darling
TTITLE9=Gonna Find Me A Bluebird
EXTD=
EXTT0=
EXTT1=
EXTT2=
EXTT3=
EXTT4=
EXTT5=
EXTT6=
EXTT7=
EXTT8=
EXTT9=
PLAYORDER=
